<mxfile host="app.diagrams.net" modified="2024-06-06T17:33:47.632Z" agent="Mozilla/5.0 (Windows NT 10.0; Win64; x64) AppleWebKit/537.36 (KHTML, like Gecko) Chrome/125.0.0.0 Safari/537.36" etag="KcMYU5Qe5z65N8xIjZTp" version="24.5.1" type="github">
  <diagram name="Página-1" id="bZU9mE9SwAUuxLS1dLZg">
    <mxGraphModel dx="1434" dy="780" grid="1" gridSize="10" guides="1" tooltips="1" connect="1" arrows="1" fold="1" page="1" pageScale="1" pageWidth="827" pageHeight="1169" math="0" shadow="0">
      <root>
        <mxCell id="0" />
        <mxCell id="1" parent="0" />
        <mxCell id="L3idx6KREaQWC02gFrFg-6" style="edgeStyle=none;rounded=0;orthogonalLoop=1;jettySize=auto;html=1;exitX=0.25;exitY=1;exitDx=0;exitDy=0;entryX=1;entryY=0;entryDx=0;entryDy=0;" parent="1" source="L3idx6KREaQWC02gFrFg-1" target="L3idx6KREaQWC02gFrFg-5" edge="1">
          <mxGeometry relative="1" as="geometry" />
        </mxCell>
        <mxCell id="L3idx6KREaQWC02gFrFg-7" style="edgeStyle=none;rounded=0;orthogonalLoop=1;jettySize=auto;html=1;exitX=0.75;exitY=1;exitDx=0;exitDy=0;" parent="1" source="L3idx6KREaQWC02gFrFg-1" target="L3idx6KREaQWC02gFrFg-4" edge="1">
          <mxGeometry relative="1" as="geometry" />
        </mxCell>
        <mxCell id="L3idx6KREaQWC02gFrFg-1" value="Entrar no carro" style="rounded=0;whiteSpace=wrap;html=1;" parent="1" vertex="1">
          <mxGeometry x="358" y="70" width="120" height="60" as="geometry" />
        </mxCell>
        <mxCell id="L3idx6KREaQWC02gFrFg-2" value="&lt;b&gt;&lt;font style=&quot;font-size: 16px;&quot;&gt;Ligar o carro&lt;/font&gt;&lt;/b&gt;" style="text;strokeColor=none;align=center;fillColor=none;html=1;verticalAlign=middle;whiteSpace=wrap;rounded=0;" parent="1" vertex="1">
          <mxGeometry x="358" y="30" width="116" height="30" as="geometry" />
        </mxCell>
        <mxCell id="rR0U7XyEaJHyocxxUYiU-10" style="rounded=0;orthogonalLoop=1;jettySize=auto;html=1;" edge="1" parent="1" source="L3idx6KREaQWC02gFrFg-4" target="rR0U7XyEaJHyocxxUYiU-2">
          <mxGeometry relative="1" as="geometry" />
        </mxCell>
        <mxCell id="L3idx6KREaQWC02gFrFg-4" value="NÂO" style="ellipse;whiteSpace=wrap;html=1;aspect=fixed;" parent="1" vertex="1">
          <mxGeometry x="500" y="180" width="80" height="80" as="geometry" />
        </mxCell>
        <mxCell id="rR0U7XyEaJHyocxxUYiU-14" style="rounded=0;orthogonalLoop=1;jettySize=auto;html=1;exitX=0.5;exitY=1;exitDx=0;exitDy=0;" edge="1" parent="1" source="L3idx6KREaQWC02gFrFg-5" target="rR0U7XyEaJHyocxxUYiU-9">
          <mxGeometry relative="1" as="geometry" />
        </mxCell>
        <mxCell id="L3idx6KREaQWC02gFrFg-5" value="SIM" style="ellipse;whiteSpace=wrap;html=1;aspect=fixed;" parent="1" vertex="1">
          <mxGeometry x="270" y="205" width="80" height="80" as="geometry" />
        </mxCell>
        <mxCell id="rR0U7XyEaJHyocxxUYiU-1" value="A porta estava aberta&lt;div&gt;&lt;br&gt;&lt;/div&gt;" style="text;strokeColor=none;align=center;fillColor=none;html=1;verticalAlign=middle;whiteSpace=wrap;rounded=0;" vertex="1" parent="1">
          <mxGeometry x="188" y="210" width="90" height="30" as="geometry" />
        </mxCell>
        <mxCell id="rR0U7XyEaJHyocxxUYiU-11" style="rounded=0;orthogonalLoop=1;jettySize=auto;html=1;exitX=0.25;exitY=1;exitDx=0;exitDy=0;" edge="1" parent="1" source="rR0U7XyEaJHyocxxUYiU-2" target="rR0U7XyEaJHyocxxUYiU-4">
          <mxGeometry relative="1" as="geometry" />
        </mxCell>
        <mxCell id="rR0U7XyEaJHyocxxUYiU-12" style="rounded=0;orthogonalLoop=1;jettySize=auto;html=1;exitX=0.75;exitY=1;exitDx=0;exitDy=0;entryX=0;entryY=0;entryDx=0;entryDy=0;" edge="1" parent="1" source="rR0U7XyEaJHyocxxUYiU-2" target="rR0U7XyEaJHyocxxUYiU-5">
          <mxGeometry relative="1" as="geometry" />
        </mxCell>
        <mxCell id="rR0U7XyEaJHyocxxUYiU-2" value="Abrir a porta" style="rounded=0;whiteSpace=wrap;html=1;" vertex="1" parent="1">
          <mxGeometry x="510" y="310" width="120" height="60" as="geometry" />
        </mxCell>
        <mxCell id="rR0U7XyEaJHyocxxUYiU-3" value="Tenho a chave&lt;div&gt;&lt;br&gt;&lt;/div&gt;" style="text;strokeColor=none;align=center;fillColor=none;html=1;verticalAlign=middle;whiteSpace=wrap;rounded=0;" vertex="1" parent="1">
          <mxGeometry x="400" y="400" width="60" height="30" as="geometry" />
        </mxCell>
        <mxCell id="rR0U7XyEaJHyocxxUYiU-13" style="rounded=0;orthogonalLoop=1;jettySize=auto;html=1;exitX=0;exitY=1;exitDx=0;exitDy=0;" edge="1" parent="1" source="rR0U7XyEaJHyocxxUYiU-4" target="rR0U7XyEaJHyocxxUYiU-9">
          <mxGeometry relative="1" as="geometry" />
        </mxCell>
        <mxCell id="rR0U7XyEaJHyocxxUYiU-4" value="Sim" style="ellipse;whiteSpace=wrap;html=1;aspect=fixed;" vertex="1" parent="1">
          <mxGeometry x="450" y="420" width="80" height="80" as="geometry" />
        </mxCell>
        <mxCell id="rR0U7XyEaJHyocxxUYiU-5" value="Não" style="ellipse;whiteSpace=wrap;html=1;aspect=fixed;" vertex="1" parent="1">
          <mxGeometry x="620" y="420" width="80" height="80" as="geometry" />
        </mxCell>
        <mxCell id="rR0U7XyEaJHyocxxUYiU-6" value="&lt;div&gt;Não tenho a chave&lt;/div&gt;" style="text;strokeColor=none;align=center;fillColor=none;html=1;verticalAlign=middle;whiteSpace=wrap;rounded=0;" vertex="1" parent="1">
          <mxGeometry x="700" y="350" width="60" height="30" as="geometry" />
        </mxCell>
        <mxCell id="rR0U7XyEaJHyocxxUYiU-7" value="Porta fechada" style="text;strokeColor=none;align=center;fillColor=none;html=1;verticalAlign=middle;whiteSpace=wrap;rounded=0;" vertex="1" parent="1">
          <mxGeometry x="600" y="230" width="60" height="30" as="geometry" />
        </mxCell>
        <mxCell id="rR0U7XyEaJHyocxxUYiU-8" value="Cpnseguiu ?" style="text;strokeColor=none;align=center;fillColor=none;html=1;verticalAlign=middle;whiteSpace=wrap;rounded=0;" vertex="1" parent="1">
          <mxGeometry x="382" y="140" width="72" height="30" as="geometry" />
        </mxCell>
        <mxCell id="rR0U7XyEaJHyocxxUYiU-17" style="edgeStyle=orthogonalEdgeStyle;rounded=0;orthogonalLoop=1;jettySize=auto;html=1;exitX=0.25;exitY=1;exitDx=0;exitDy=0;" edge="1" parent="1" source="rR0U7XyEaJHyocxxUYiU-9" target="rR0U7XyEaJHyocxxUYiU-16">
          <mxGeometry relative="1" as="geometry" />
        </mxCell>
        <mxCell id="rR0U7XyEaJHyocxxUYiU-18" style="edgeStyle=orthogonalEdgeStyle;rounded=0;orthogonalLoop=1;jettySize=auto;html=1;exitX=0.75;exitY=1;exitDx=0;exitDy=0;" edge="1" parent="1" source="rR0U7XyEaJHyocxxUYiU-9" target="rR0U7XyEaJHyocxxUYiU-15">
          <mxGeometry relative="1" as="geometry" />
        </mxCell>
        <mxCell id="rR0U7XyEaJHyocxxUYiU-9" value="Sentar no banco" style="rounded=1;whiteSpace=wrap;html=1;" vertex="1" parent="1">
          <mxGeometry x="240" y="460" width="120" height="60" as="geometry" />
        </mxCell>
        <mxCell id="rR0U7XyEaJHyocxxUYiU-15" value="Não" style="ellipse;whiteSpace=wrap;html=1;aspect=fixed;" vertex="1" parent="1">
          <mxGeometry x="350" y="590" width="80" height="80" as="geometry" />
        </mxCell>
        <mxCell id="rR0U7XyEaJHyocxxUYiU-33" style="rounded=0;orthogonalLoop=1;jettySize=auto;html=1;exitX=0.5;exitY=1;exitDx=0;exitDy=0;" edge="1" parent="1" source="rR0U7XyEaJHyocxxUYiU-16" target="rR0U7XyEaJHyocxxUYiU-19">
          <mxGeometry relative="1" as="geometry" />
        </mxCell>
        <mxCell id="rR0U7XyEaJHyocxxUYiU-16" value="SIm" style="ellipse;whiteSpace=wrap;html=1;aspect=fixed;" vertex="1" parent="1">
          <mxGeometry x="120" y="600" width="80" height="80" as="geometry" />
        </mxCell>
        <mxCell id="rR0U7XyEaJHyocxxUYiU-24" style="rounded=0;orthogonalLoop=1;jettySize=auto;html=1;exitX=0.75;exitY=1;exitDx=0;exitDy=0;entryX=0;entryY=0;entryDx=0;entryDy=0;" edge="1" parent="1" source="rR0U7XyEaJHyocxxUYiU-19" target="rR0U7XyEaJHyocxxUYiU-20">
          <mxGeometry relative="1" as="geometry" />
        </mxCell>
        <mxCell id="rR0U7XyEaJHyocxxUYiU-19" value="Girar ignição" style="rounded=0;whiteSpace=wrap;html=1;" vertex="1" parent="1">
          <mxGeometry x="100" y="730" width="120" height="60" as="geometry" />
        </mxCell>
        <mxCell id="rR0U7XyEaJHyocxxUYiU-27" style="edgeStyle=orthogonalEdgeStyle;rounded=0;orthogonalLoop=1;jettySize=auto;html=1;exitX=1;exitY=0.5;exitDx=0;exitDy=0;" edge="1" parent="1" source="rR0U7XyEaJHyocxxUYiU-20" target="rR0U7XyEaJHyocxxUYiU-26">
          <mxGeometry relative="1" as="geometry" />
        </mxCell>
        <mxCell id="rR0U7XyEaJHyocxxUYiU-20" value="Não ligou" style="ellipse;whiteSpace=wrap;html=1;aspect=fixed;" vertex="1" parent="1">
          <mxGeometry x="230" y="830" width="80" height="80" as="geometry" />
        </mxCell>
        <mxCell id="rR0U7XyEaJHyocxxUYiU-34" style="edgeStyle=orthogonalEdgeStyle;rounded=0;orthogonalLoop=1;jettySize=auto;html=1;exitX=0.5;exitY=1;exitDx=0;exitDy=0;" edge="1" parent="1" source="rR0U7XyEaJHyocxxUYiU-21" target="rR0U7XyEaJHyocxxUYiU-22">
          <mxGeometry relative="1" as="geometry" />
        </mxCell>
        <mxCell id="rR0U7XyEaJHyocxxUYiU-21" value="Ligou" style="ellipse;whiteSpace=wrap;html=1;aspect=fixed;" vertex="1" parent="1">
          <mxGeometry x="40" y="860" width="80" height="80" as="geometry" />
        </mxCell>
        <mxCell id="rR0U7XyEaJHyocxxUYiU-22" value="Fim&lt;div&gt;&lt;br&gt;&lt;/div&gt;" style="whiteSpace=wrap;html=1;aspect=fixed;" vertex="1" parent="1">
          <mxGeometry x="40" y="1010" width="80" height="80" as="geometry" />
        </mxCell>
        <mxCell id="rR0U7XyEaJHyocxxUYiU-23" style="rounded=0;orthogonalLoop=1;jettySize=auto;html=1;exitX=0.25;exitY=1;exitDx=0;exitDy=0;entryX=0.8;entryY=0.038;entryDx=0;entryDy=0;entryPerimeter=0;" edge="1" parent="1" source="rR0U7XyEaJHyocxxUYiU-19" target="rR0U7XyEaJHyocxxUYiU-21">
          <mxGeometry relative="1" as="geometry" />
        </mxCell>
        <mxCell id="rR0U7XyEaJHyocxxUYiU-32" style="rounded=0;orthogonalLoop=1;jettySize=auto;html=1;exitX=0.75;exitY=1;exitDx=0;exitDy=0;" edge="1" parent="1" source="rR0U7XyEaJHyocxxUYiU-26" target="rR0U7XyEaJHyocxxUYiU-30">
          <mxGeometry relative="1" as="geometry" />
        </mxCell>
        <mxCell id="rR0U7XyEaJHyocxxUYiU-26" value="Verificar" style="whiteSpace=wrap;html=1;aspect=fixed;" vertex="1" parent="1">
          <mxGeometry x="400" y="830" width="80" height="80" as="geometry" />
        </mxCell>
        <mxCell id="rR0U7XyEaJHyocxxUYiU-29" value="Bateria" style="ellipse;whiteSpace=wrap;html=1;aspect=fixed;" vertex="1" parent="1">
          <mxGeometry x="334" y="980" width="80" height="80" as="geometry" />
        </mxCell>
        <mxCell id="rR0U7XyEaJHyocxxUYiU-30" value="Gasolina" style="ellipse;whiteSpace=wrap;html=1;aspect=fixed;" vertex="1" parent="1">
          <mxGeometry x="510" y="960" width="80" height="80" as="geometry" />
        </mxCell>
        <mxCell id="rR0U7XyEaJHyocxxUYiU-31" style="rounded=0;orthogonalLoop=1;jettySize=auto;html=1;exitX=0.25;exitY=1;exitDx=0;exitDy=0;entryX=0.65;entryY=0.025;entryDx=0;entryDy=0;entryPerimeter=0;" edge="1" parent="1" source="rR0U7XyEaJHyocxxUYiU-26" target="rR0U7XyEaJHyocxxUYiU-29">
          <mxGeometry relative="1" as="geometry" />
        </mxCell>
      </root>
    </mxGraphModel>
  </diagram>
</mxfile>
